:SAMPLES-PER-SECOND 30
:FULLY-SPECIFIED
:DEGREES
783
root  14.0865 40.6174 10.0562 147.093 87.3374 151.12
RightUpLeg  3.11013 -11.9958 -12.5363
RightLeg  6.52727 -10.117 2.76138
RightFoot  -0.408366 -0.355854 3.64283
RightToes  0.000481921 0.542163 -0.142578
Spine  -1.31666 -2.42051 -4.16556
Spine1  14.1703 -4.41317 6.46193
HEad  15.9471 5.76962 -2.17623
LeftShoulder1  8.71589 -14.0373 -43.2149
LeftArm  -16.3281 -32.5103 -24.9609
LeftForeArm  44.6392 -71.0291 -28.6823
LeftHand  -0.25398 0.0180481 5.50724
RightShoulder  4.89149 8.41391 35.0813
RightArm  -3.94026 -21.7062 36.4758
RightForeArm  147.441 50.4276 166.19
RightHand  -1.62753 3.7522 -20.7782
LeftUpLeg  3.54113 7.69057 9.03608
LeftLeg  0.860089 12.202 -3.31448
LeftFoot  3.50175 0.757312 -5.97583
LeftToes  1.06245e-005 4.65869e-005 -8.65517e-006
784
root  14.0557 40.615 10.0628 145.892 87.4152 149.99
RightUpLeg  3.07358 -12.0339 -12.547
RightLeg  6.62026 -9.99112 2.77209
RightFoot  -0.413632 -0.350619 3.56456
RightToes  0.000481921 0.542163 -0.142578
Spine  -1.36738 -2.5707 -4.43014
Spine1  14.2023 -4.68098 6.81938
HEad  15.9965 6.13058 -2.52068
LeftShoulder1  8.58751 -14.0735 -42.4444
LeftArm  -16.5053 -36.8669 -24.0078
LeftForeArm  35.5211 -64.2576 -20.0115
LeftHand  -0.25398 0.0180481 5.50724
RightShoulder  4.90923 8.49654 34.949
RightArm  -3.82865 -21.3453 36.5485
RightForeArm  147.348 50.7577 166.035
RightHand  -1.60238 3.65394 -20.6775
LeftUpLeg  3.5779 7.6821 9.03764
LeftLeg  0.88049 12.2988 -3.29174
LeftFoot  3.53152 0.760131 -5.99
LeftToes  1.06245e-005 4.65869e-005 -8.65517e-006
785
root  14.0266 40.6126 10.0691 144.338 87.5155 148.528
RightUpLeg  3.05563 -12.0563 -12.5486
RightLeg  6.70673 -9.85363 2.76627
RightFoot  -0.427552 -0.347832 3.52403
RightToes  0.000481921 0.542163 -0.142578
Spine  -1.36243 -2.75608 -4.72338
Spine1  14.2399 -4.99355 7.19431
HEad  16.0369 6.57521 -2.76629
LeftShoulder1  8.49144 -14.1104 -41.8419
LeftArm  -16.6406 -40.8621 -22.6657
LeftForeArm  28.9836 -57.3461 -15.0378
LeftHand  -0.25398 0.0180481 5.50724
RightShoulder  4.96075 8.66889 34.7955
RightArm  -3.67046 -20.9835 36.7145
RightForeArm  147.399 51.1571 165.855
RightHand  -1.54924 3.42917 -20.5003
LeftUpLeg  3.65287 7.71099 9.07109
LeftLeg  0.894546 12.3706 -3.30633
LeftFoot  3.54665 0.761587 -5.99189
LeftToes  1.06245e-005 4.65869e-005 -8.65517e-006
786
root  14.0003 40.6105 10.075 142.54 87.6231 146.813
RightUpLeg  3.03708 -12.0778 -12.5497
RightLeg  6.77946 -9.70159 2.76304
RightFoot  -0.446236 -0.347084 3.51492
RightToes  0.000481921 0.542163 -0.142578
Spine  -1.37047 -2.91447 -4.98533
Spine1  14.2982 -5.25125 7.47786
HEad  16.0883 7.079 -2.84391
LeftShoulder1  8.44868 -14.2069 -41.3706
LeftArm  -16.59 -44.6891 -21.0051
LeftForeArm  23.8545 -50.525 -11.7744
LeftHand  -0.25398 0.0180481 5.50724
RightShoulder  5.03273 8.84741 34.7892
RightArm  -3.52528 -20.7561 36.7275
RightForeArm  147.281 51.5185 165.679
RightHand  -1.53632 3.34848 -20.5131
LeftUpLeg  3.72576 7.74538 9.10792
LeftLeg  0.908484 12.4471 -3.32499
LeftFoot  3.55768 0.76343 -5.99935
LeftToes  1.06245e-005 4.65869e-005 -8.65517e-006
787
root  13.9791 40.6097 10.0816 140.876 87.7232 145.191
RightUpLeg  2.98798 -12.098 -12.5372
RightLeg  6.83941 -9.56471 2.76697
RightFoot  -0.450541 -0.345464 3.49204
RightToes  0.000481921 0.542163 -0.142578
Spine  -1.4069 -3.02534 -5.20674
Spine1  14.358 -5.43408 7.68433
HEad  16.1376 7.51863 -2.81616
LeftShoulder1  8.44015 -14.3344 -41.0054
LeftArm  -16.2536 -48.4619 -19.1723
LeftForeArm  19.9098 -43.8679 -9.39293
LeftHand  -0.25398 0.0180481 5.50724
RightShoulder  5.10138 8.94937 35.0037
RightArm  -3.3868 -20.6594 36.3888
RightForeArm  146.904 51.7496 165.543
RightHand  -1.55593 3.42158 -20.6023
LeftUpLeg  3.758 7.75901 9.13064
LeftLeg  0.915278 12.5435 -3.32205
LeftFoot  3.57938 0.766699 -6.01861
LeftToes  1.06245e-005 4.65869e-005 -8.65517e-006
788
root  13.9618 40.6094 10.0897 139.548 87.8112 143.853
RightUpLeg  2.8971 -12.0868 -12.4889
RightLeg  6.88487 -9.49246 2.75271
RightFoot  -0.432512 -0.343083 3.45713
RightToes  0.000481921 0.542163 -0.142578
Spine  -1.41931 -3.12591 -5.44854
Spine1  14.3641 -5.6223 7.95785
HEad  16.1543 7.77814 -2.82423
LeftShoulder1  8.46776 -14.4528 -40.8562
LeftArm  -15.6455 -52.0925 -17.1051
LeftForeArm  16.4737 -37.4582 -7.57421
LeftHand  -0.25398 0.0180481 5.50724
RightShoulder  5.14413 8.99654 35.188
RightArm  -3.15866 -20.6059 35.9292
RightForeArm  146.522 51.9347 165.428
RightHand  -1.58984 3.61256 -20.6117
LeftUpLeg  3.74837 7.75499 9.14493
LeftLeg  0.897717 12.6441 -3.30892
LeftFoot  3.61647 0.770549 -6.03372
LeftToes  1.06245e-005 4.65869e-005 -8.65517e-006
